<svg width="24" height="24" fill="currentColor" viewBox="0 0 24 24">
<path d="M12 2.04c-5.52 0-10 4.48-10 10 0 4.41 2.88 8.15 6.84 9.49.5.09.68-.21.68-.48v-1.68c-2.78.61-3.37-1.34-3.37-1.34-.46-1.16-1.12-1.47-1.12-1.47-.91-.62.07-.6.07-.6 1.01.07 1.54 1.04 1.54 1.04.9 1.54 2.36 1.1 2.94.84.09-.66.35-1.1.63-1.35-2.22-.25-4.56-1.11-4.56-4.95 0-1.09.39-1.98 1.03-2.68-.1-.26-.45-1.29.1-2.7 0 0 .84-.27 2.75 1.02a9.56 9.56 0 012.5-.34c.85 0 1.71.11 2.5.34 1.91-1.29 2.75-1.02 2.75-1.02.55 1.41.2 2.44.1 2.7.64.7 1.03 1.59 1.03 2.68 0 3.85-2.34 4.7-4.57 4.95.36.31.67.91.67 1.84v2.73c0 .27.18.58.69.48A10.02 10.02 0 0022 12.04c0-5.52-4.48-10-10-10z" />
</svg>