<svg xmlns="http://www.w3.org/2000/svg" viewBox="0 0 100 40" width="100%" height="100%">
  <defs>
    <linearGradient id="grad1" x1="0%" y1="0%" x2="100%" y2="100%">
      <stop offset="0%" style="stop-color:#ff416c;stop-opacity:1" />
      <stop offset="100%" style="stop-color:#ff4b2b;stop-opacity:1" />
    </linearGradient>
  </defs>
  <rect width="100%" height="100%" fill="none"/>
  <g>
    <!-- Brain Outline -->
    <path d="M 30 15 C 25 10, 25 20, 30 25 C 35 30, 45 30, 50 25 C 55 20, 55 10, 50 15 Z" fill="none" stroke="url(#grad1)" stroke-width="2"/>
    <path d="M 35 15 C 33 13, 33 17, 35 19" fill="none" stroke="url(#grad1)" stroke-width="1.5"/>
    <path d="M 45 15 C 47 13, 47 17, 45 19" fill="none" stroke="url(#grad1)" stroke-width="1.5"/>
    <path d="M 40 10 C 38 8, 38 12, 40 14" fill="none" stroke="url(#grad1)" stroke-width="1.5"/>
    <path d="M 40 20 C 38 18, 38 22, 40 24" fill="none" stroke="url(#grad1)" stroke-width="1.5"/>
  </g>
  <text x="60" y="25" font-family="Verdana" font-size="10" fill="url(#grad1)" font-weight="bold">CyberAI</text>
  <!-- Circuit Lines -->
  <path d="M 50 15 L 55 10" stroke="url(#grad1)" stroke-width="2"/>
  <circle cx="55" cy="10" r="2" fill="url(#grad1)" />
  <path d="M 50 25 L 55 30" stroke="url(#grad1)" stroke-width="2"/>
  <circle cx="55" cy="30" r="2" fill="url(#grad1)" />
</svg>
